<svg width="24" height="24" viewBox="0 0 64 64" fill="none" xmlns="http://www.w3.org/2000/svg">
<path d="M56.1055 53.5547H51.4155C51.4283 45.0443 51.3566 27.0667 51.3789 18.4485L52.5762 19.3154C52.7397 19.434 52.9353 19.5003 53.1373 19.5055C53.3393 19.5108 53.5381 19.4547 53.7075 19.3447L56.5269 17.5127C56.6666 17.4219 56.7814 17.2975 56.8608 17.151C56.9403 17.0045 56.9819 16.8405 56.9819 16.6739V13.7046C57.1159 13.6441 57.2346 13.5545 57.3295 13.4423C57.4244 13.3301 57.4929 13.1981 57.5302 13.0559C57.5675 12.9138 57.5725 12.7651 57.5449 12.6207C57.5172 12.4764 57.4577 12.3401 57.3706 12.2217L51.7324 4.415C51.6399 4.28654 51.5181 4.18191 51.3772 4.10976C51.2363 4.0376 51.0802 3.99998 50.9219 4H12.9697C12.8114 3.99998 12.6553 4.0376 12.5144 4.10976C12.3735 4.18191 12.2517 4.28654 12.1592 4.415L6.521 12.2217C6.43559 12.3406 6.37748 12.4769 6.3508 12.6209C6.32412 12.7648 6.32953 12.9129 6.36666 13.0545C6.40378 13.1961 6.4717 13.3278 6.56556 13.4402C6.65943 13.5525 6.77693 13.6428 6.90969 13.7045V16.665C6.90963 16.8233 6.94719 16.9794 7.01927 17.1203C7.09134 17.2612 7.19587 17.383 7.32424 17.4756L9.85451 19.3037C10.0179 19.4218 10.2133 19.4877 10.4148 19.4928C10.6164 19.4979 10.8148 19.4418 10.9839 19.332L12.9453 18.0602V33.0606H7.76514C7.63381 33.0605 7.50376 33.0864 7.38242 33.1366C7.26107 33.1868 7.15082 33.2605 7.05795 33.3534C6.96509 33.4462 6.89143 33.5565 6.84119 33.6778C6.79095 33.7992 6.76511 33.9292 6.76514 34.0606V53.8173C6.31243 54.0302 5.92945 54.3673 5.66072 54.7893C5.39199 55.2113 5.24855 55.7009 5.24707 56.2012V57.3525C5.24781 58.0545 5.52698 58.7274 6.02331 59.2238C6.51965 59.7201 7.19261 59.9993 7.89453 60H56.1055C56.8074 59.9993 57.4804 59.7201 57.9767 59.2238C58.473 58.7274 58.7522 58.0545 58.7529 57.3525V56.2012C58.752 55.4994 58.4727 54.8267 57.9764 54.3305C57.4801 53.8344 56.8072 53.5554 56.1055 53.5547ZM28.2349 13.8076V16.126L26.4844 17.2764L24.958 16.1582V13.8076H28.2349ZM33.5845 13.8076V16.1221L31.7959 17.2812L30.2349 16.1542V13.8076H33.5845ZM38.9336 13.8076V16.1221L37.145 17.2812L35.5844 16.1542V13.8076H38.9336ZM44.2832 13.8076V16.1406L42.4946 17.3056L40.9336 16.1728V13.8076H44.2832ZM49.6323 13.8076V16.1406L47.8442 17.3056L46.2832 16.1728V13.8076H49.6323ZM49.3789 37.6143H46.8315V19.0419C47.097 19.3052 47.4424 19.4729 47.8135 19.5186C48.236 19.5543 49.0315 18.8889 49.3789 18.6924L49.3789 37.6143ZM22.958 16.1221L21.1694 17.2812L19.6143 16.1585V13.8076H22.958V16.1221ZM14.5365 16.3658C14.5328 16.3622 14.264 16.1655 14.2593 16.1625V13.8125H17.6084V16.1297L15.8223 17.29L14.5365 16.3658ZM19.5063 18.5474C19.899 18.7849 20.6548 19.5355 21.1386 19.4932C21.55 19.6004 23.5589 18.0458 23.9234 17.8792C24.3675 18.1344 25.9812 19.5885 26.4536 19.4932C26.8823 19.5888 28.8339 18.0594 29.2084 17.8795C29.6287 18.114 31.3 19.5893 31.7651 19.4932C32.2025 19.5782 34.1709 18.0598 34.5536 17.8767L36.5283 19.3037C36.6918 19.4218 36.8872 19.4877 37.0889 19.4928C37.2905 19.4978 37.489 19.4418 37.6582 19.332L39.8886 17.8857L41.8765 19.3281C42.0403 19.4469 42.2364 19.5132 42.4387 19.5183C42.6411 19.5234 42.8402 19.4669 43.0098 19.3564L44.8315 18.1701V37.6143H42.0828C39.9525 30.2778 29.3598 30.2894 27.2343 37.6144L21.2349 37.6143V34.0606C21.2349 33.9292 21.2091 33.7992 21.1588 33.6778C21.1086 33.5565 21.0349 33.4462 20.942 33.3534C20.8492 33.2605 20.7389 33.1868 20.6176 33.1366C20.4962 33.0864 20.3662 33.0605 20.2349 33.0606H19.5063L19.5063 18.5474ZM39.955 37.6143H29.3622C29.8032 36.5743 30.5407 35.6873 31.4825 35.0637C32.4244 34.4401 33.529 34.1076 34.6586 34.1076C35.7882 34.1076 36.8928 34.4401 37.8346 35.0637C38.7765 35.6873 39.5139 36.5743 39.955 37.6143ZM21.2349 39.6143H49.4155V53.5547H21.2349L21.2349 39.6143ZM54.982 16.1309L53.1934 17.293L51.6324 16.1631V13.8076H54.982V16.1309ZM13.481 6H50.4106L54.6045 11.8076C52.3761 11.8084 47.5446 11.807 45.2832 11.8076C36.7293 11.8075 27.1618 11.8076 18.6084 11.8076C16.3553 11.806 11.5187 11.8088 9.28719 11.8076L13.481 6ZM10.4707 17.2812L8.9097 16.1542V13.8076H12.2574V16.1234L10.4707 17.2812ZM14.9453 19.1231C15.1184 19.3121 15.3508 19.4366 15.6041 19.476C15.8574 19.5154 16.1165 19.4674 16.3389 19.3398L17.5063 18.5811V33.0606H14.9454L14.9453 19.1231ZM8.76514 35.0606C11.5533 35.0666 16.4618 35.0562 19.2348 35.0606C19.2095 37.3119 19.1861 50.9859 19.1988 53.5547H8.76514V35.0606ZM56.7529 57.3526C56.7528 57.5242 56.6845 57.6888 56.5631 57.8102C56.4417 57.9316 56.2771 57.9999 56.1055 58H7.89453C7.72286 57.9999 7.55826 57.9316 7.43686 57.8102C7.31547 57.6888 7.24721 57.5242 7.24707 57.3525C7.30229 56.7858 6.98057 55.5732 7.89454 55.5547C19.3647 55.5547 44.4984 55.5547 56.1055 55.5547C57.015 55.5754 56.702 56.7776 56.7529 57.3526Z" fill="#FB752A"/>
<path d="M16.9279 37.9092H11.0725C10.8106 37.9143 10.5612 38.0219 10.3779 38.2089C10.1945 38.3959 10.0918 38.6473 10.0918 38.9092C10.0918 39.1711 10.1945 39.4225 10.3779 39.6095C10.5613 39.7965 10.8107 39.9041 11.0725 39.9092H16.9279C17.1898 39.9041 17.4392 39.7965 17.6225 39.6095C17.8059 39.4225 17.9086 39.1711 17.9086 38.9092C17.9086 38.6473 17.8059 38.3958 17.6225 38.2089C17.4392 38.0219 17.1898 37.9143 16.9279 37.9092ZM16.9279 43.3076H11.0725C10.8106 43.3127 10.5612 43.4203 10.3779 43.6073C10.1945 43.7943 10.0918 44.0458 10.0918 44.3076C10.0918 44.5695 10.1945 44.821 10.3779 45.008C10.5613 45.1949 10.8107 45.3025 11.0725 45.3076H16.9279C17.1898 45.3025 17.4392 45.1949 17.6225 45.0079C17.8059 44.821 17.9086 44.5695 17.9086 44.3076C17.9086 44.0457 17.8059 43.7943 17.6225 43.6073C17.4392 43.4203 17.1898 43.3127 16.9279 43.3076ZM16.9279 48.7051H11.0725C10.8106 48.7102 10.5612 48.8178 10.3779 49.0048C10.1945 49.1918 10.0918 49.4432 10.0918 49.7051C10.0918 49.967 10.1945 50.2184 10.3779 50.4054C10.5613 50.5924 10.8107 50.7 11.0725 50.7051H16.9279C17.1898 50.7 17.4392 50.5924 17.6225 50.4054C17.8059 50.2184 17.9086 49.967 17.9086 49.7051C17.9086 49.4432 17.8059 49.1917 17.6225 49.0048C17.4392 48.8178 17.1898 48.7102 16.9279 48.7051ZM34.6569 30.6025C35.6302 30.5908 36.5595 30.1959 37.2436 29.5035C37.9276 28.8111 38.3112 27.877 38.3112 26.9038C38.3112 25.9305 37.9276 24.9964 37.2435 24.304C36.5594 23.6117 35.63 23.2168 34.6568 23.2051C33.6836 23.2169 32.7542 23.6117 32.0702 24.3041C31.3861 24.9965 31.0026 25.9306 31.0026 26.9039C31.0026 27.8772 31.3862 28.8112 32.0703 29.5036C32.7543 30.1959 33.6837 30.5908 34.6569 30.6025ZM34.6569 25.2051C35.1032 25.2116 35.5289 25.3934 35.8422 25.7113C36.1555 26.0292 36.3311 26.4575 36.3311 26.9038C36.3311 27.3501 36.1554 27.7785 35.8422 28.0964C35.5289 28.4142 35.1031 28.596 34.6569 28.6025C34.2106 28.596 33.7848 28.4142 33.4716 28.0963C33.1583 27.7784 32.9827 27.3501 32.9827 26.9038C32.9827 26.4575 33.1583 26.0291 33.4716 25.7112C33.7849 25.3934 34.2107 25.2116 34.6569 25.2051Z" fill="#FB752A"/>
</svg>
