<svg xmlns="http://www.w3.org/2000/svg" version="1.1" xmlns:xlink="http://www.w3.org/1999/xlink" xmlns:svgjs="http://svgjs.dev/svgjs" width="2000" height="1247" viewBox="0 0 2000 1247"><g transform="matrix(1,0,0,1,-1.2121212121212466,0.504858299595071)"><svg viewBox="0 0 396 247" data-background-color="#ffffff" preserveAspectRatio="xMidYMid meet" height="1247" width="2000" xmlns="http://www.w3.org/2000/svg" xmlns:xlink="http://www.w3.org/1999/xlink"><g id="tight-bounds" transform="matrix(1,0,0,1,0.2400000000000091,-0.09999999999999432)"><svg viewBox="0 0 395.52 247.2" height="247.2" width="395.52"><g><svg></svg></g><g><svg viewBox="0 0 395.52 247.2" height="247.2" width="395.52"><g transform="matrix(1,0,0,1,75.54432,111.13221952850407)"><svg viewBox="0 0 244.43135999999998 24.935560942991852" height="24.935560942991852" width="244.43135999999998"><g><svg viewBox="0 0 244.43135999999998 24.935560942991852" height="24.935560942991852" width="244.43135999999998"><g><svg viewBox="0 0 244.43135999999998 24.935560942991852" height="24.935560942991852" width="244.43135999999998"><g><svg viewBox="0 0 244.43135999999998 24.935560942991852" height="24.935560942991852" width="244.43135999999998"><g><svg viewBox="0 0 244.43135999999998 24.935560942991852" height="24.935560942991852" width="244.43135999999998"><g><svg viewBox="0 0 244.43135999999998 24.935560942991852" height="24.935560942991852" width="244.43135999999998"><g transform="matrix(1,0,0,1,0,0)"><svg width="244.43135999999998" viewBox="3 -35.5 349.92999267578125 35.70000076293945" height="24.935560942991852" data-palette-color="#e8772e"><path d="M6.9-35L6.9-35 20.3-35Q22.4-35 23.08-33.95 23.75-32.9 23.98-29.63 24.2-26.35 24.2-16.93 24.2-7.5 23.8-3.1L23.8-3.1Q23.65-1.95 22.78-1.05 21.9-0.15 20.45-0.05L20.45-0.05Q17.6 0.15 13.85 0.15 10.1 0.15 6.75-0.05L6.75-0.05Q5.3-0.15 4.42-1.05 3.55-1.95 3.4-3.1L3.4-3.1Q3-7.5 3-16.93 3-26.35 3.23-29.63 3.45-32.9 4.13-33.95 4.8-35 6.9-35ZM48.45-13.95L48.45-13.95 48.45-11.9Q48.45-10.35 47.82-9.88 47.2-9.4 46.05-9.4L46.05-9.4 33.5-9.4Q32.35-9.4 31.8-9.88 31.25-10.35 31.2-11.9L31.2-11.9 31.2-13.95Q31.2-15.5 31.82-15.98 32.45-16.45 33.6-16.45L33.6-16.45 46.15-16.45Q47.3-16.45 47.85-15.98 48.4-15.5 48.45-13.95ZM103.7-3.15L103.7-3.15Q103.59-2 102.72-1.1 101.84-0.2 100.34-0.1L100.34-0.1Q96.25 0.15 93.59 0.15 90.95 0.15 87.34-0.1L87.34-0.1Q84.59-0.35 84.45-2.5L84.45-2.5Q84.4-3.35 84.34-4.73 84.3-6.1 84.22-7.15 84.15-8.2 83.67-8.8 83.2-9.4 82-9.4L82-9.4 78.25-9.4Q77.05-9.4 76.57-8.8 76.09-8.2 76.02-7.15 75.95-6.1 75.9-4.73 75.84-3.35 75.8-2.5L75.8-2.5Q75.65-0.35 72.9-0.1L72.9-0.1Q69.3 0.15 66.32 0.15 63.35 0.15 59.25-0.1L59.25-0.1Q57.75-0.2 56.87-1.1 56-2 55.9-3.15L55.9-3.15Q55.5-7.55 55.5-17.3 55.5-27.05 55.7-29.98 55.9-32.9 56.6-33.98 57.3-35.05 59.4-35.05L59.4-35.05 71.59-35.05Q73.34-35.05 74.57-33.85 75.8-32.65 75.8-30.75L75.8-30.75 75.8-20.25Q75.8-18.45 77.34-18.45L77.34-18.45 82.9-18.45Q84.45-18.45 84.45-20.25L84.45-20.25 84.45-30.75Q84.45-32.65 85.67-33.85 86.9-35.05 88.65-35.05L88.65-35.05 100.2-35.05Q102.3-35.05 103-33.98 103.7-32.9 103.9-29.98 104.09-27.05 104.09-17.3 104.09-7.55 103.7-3.15ZM142.19-32.65L142.19-32.65 158.54-5Q159.54-3.35 159.54-2.23 159.54-1.1 158.64-0.55 157.74 0 156.54 0L156.54 0 140.44 0Q137.99 0 137.29-0.9L137.29-0.9Q137.09-1.2 136.74-1.95L136.74-1.95 135.29-5.05Q134.64-6.5 132.24-6.7L132.24-6.7 122.79-6.7Q121.74-6.7 121.19-6.5 120.64-6.3 120.29-5.6L120.29-5.6 118.34-1.55Q117.84-0.65 117.24-0.33 116.64 0 115.49 0L115.49 0 110.99 0Q109.04 0 108.89-1.4L108.89-1.4Q108.84-1.6 108.84-1.8L108.84-1.8Q108.84-2.95 109.59-4L109.59-4 125.24-31.6Q127.49-35.5 132.54-35.5L132.54-35.5 136.54-35.5Q140.54-35.5 142.19-32.65ZM125.99-19.85L125.99-19.85 123.69-15.3Q123.49-14.85 123.49-14.5L123.49-14.5Q123.49-13.2 124.74-13.2L124.74-13.2 129.29-13.2Q130.34-13.2 130.74-13.73 131.14-14.25 131.14-14.65 131.14-15.05 130.99-15.45L130.99-15.45 129.09-19.75Q128.49-21.05 127.54-21.05 126.59-21.05 125.99-19.85ZM184.49-14.5L184.49-14.5 184.44-8Q184.44-7.55 184.74-7.23 185.04-6.9 185.54-6.9L185.54-6.9Q188.59-6.9 190.57-8.1 192.54-9.3 192.54-11.88 192.54-14.45 190.49-15.45L190.49-15.45Q188.84-16.25 186.89-16.25L186.89-16.25Q186.39-16.25 185.89-16.2L185.89-16.2Q184.49-16.1 184.49-14.5ZM184.44-28.25L184.44-28.25 184.49-24.15Q184.49-23.2 185.64-23.2L185.64-23.2Q190.69-23.2 190.69-26.05L190.69-26.05Q190.69-29.35 186.19-29.35L186.19-29.35Q185.89-29.35 185.64-29.35L185.64-29.35Q184.44-29.35 184.44-28.25ZM168.09-34.95L168.09-34.95Q174.29-35.15 183.59-35.15 192.89-35.15 196.47-34.98 200.04-34.8 202.79-32.2 205.54-29.6 205.54-26.2L205.54-26.2Q205.54-22.05 201.94-20.1L201.94-20.1Q201.59-19.9 201.59-19.63 201.59-19.35 201.94-19.25L201.94-19.25Q204.54-18.55 206.32-16.25 208.09-13.95 208.09-10.8L208.09-10.8Q208.09-6.85 205.04-3.65 201.99-0.45 195.69-0.18 189.39 0.1 186.59 0.1 183.79 0.1 167.89-0.05L167.89-0.05Q166.44-0.05 165.54-0.98 164.64-1.9 164.49-3.1L164.49-3.1Q164.09-7.5 164.09-15.93 164.09-24.35 164.44-30.3L164.44-30.3Q164.59-32.75 165.29-33.83 165.99-34.9 168.09-34.95ZM216.89-35L216.89-35 230.29-35Q232.39-35 233.06-33.95 233.74-32.9 233.96-29.63 234.19-26.35 234.19-16.93 234.19-7.5 233.79-3.1L233.79-3.1Q233.64-1.95 232.76-1.05 231.89-0.15 230.44-0.05L230.44-0.05Q227.59 0.15 223.84 0.15 220.09 0.15 216.74-0.05L216.74-0.05Q215.29-0.15 214.41-1.05 213.54-1.95 213.39-3.1L213.39-3.1Q212.99-7.5 212.99-16.93 212.99-26.35 213.21-29.63 213.44-32.9 214.11-33.95 214.79-35 216.89-35ZM261.04-22.95L261.04-22.95 260.99-12.95Q260.99-10.75 261.66-9.68 262.33-8.6 264.49-8.6L264.49-8.6 277.13-8.6Q279.44-8.55 279.44-5.1L279.44-5.1Q279.44-2.45 278.79-1.25 278.13-0.05 276.13 0L276.13 0Q269.08 0.2 262.19 0.2 255.28 0.2 244.59 0.1L244.59 0.1Q242.78 0.1 241.66-0.78 240.53-1.65 240.38-3.2L240.38-3.2Q239.99-7.55 239.99-16.93 239.99-26.3 240.21-29.58 240.44-32.85 241.13-33.93 241.84-35 243.88-35L243.88-35 257.29-35Q259.38-35 260.06-33.9 260.74-32.8 260.88-30.35 261.04-27.9 261.04-22.95ZM286.98-35L286.98-35 300.38-35Q302.48-35 303.16-33.95 303.83-32.9 304.06-29.63 304.28-26.35 304.28-16.93 304.28-7.5 303.88-3.1L303.88-3.1Q303.73-1.95 302.86-1.05 301.98-0.15 300.53-0.05L300.53-0.05Q297.68 0.15 293.93 0.15 290.18 0.15 286.83-0.05L286.83-0.05Q285.38-0.15 284.51-1.05 283.63-1.95 283.48-3.1L283.48-3.1Q283.08-7.5 283.08-16.93 283.08-26.35 283.31-29.63 283.53-32.9 284.21-33.95 284.88-35 286.98-35ZM344.18-35L344.18-35 349.53-35Q351.23-35 351.91-34.45 352.58-33.9 352.63-32.2L352.63-32.2Q352.93-24.6 352.93-15.85 352.93-7.1 352.58-3.05L352.58-3.05Q352.48-1.9 351.71-0.95 350.93 0 349.68 0L349.68 0 341.33 0Q339.58 0 337.48-1.25L337.48-1.25Q325.88-8.1 322.88-9.6L322.88-9.6Q322.28-9.85 321.91-9.43 321.53-9 321.53-7.85L321.53-7.85 321.53-2.3Q321.53-1.35 320.83-0.8L320.83-0.8Q319.78 0.05 315.43 0.05L315.43 0.05Q314.23 0.05 313.08-0.03 311.93-0.1 311.21-1.05 310.48-2 310.43-3.1L310.43-3.1Q310.28-9.1 310.28-18.18 310.28-27.25 310.33-30 310.38-32.75 310.98-33.88 311.58-35 313.28-35L313.28-35 318.78-35Q320.48-35 322.28-34.05L322.28-34.05Q337.78-26 340.38-24.7L340.38-24.7Q341.23-24.3 341.73-24.6 342.23-24.9 342.23-25.7L342.23-25.7 342.23-32.7Q342.23-33.7 342.76-34.35 343.28-35 344.18-35Z" opacity="1" transform="matrix(1,0,0,1,0,0)" fill="#ffffff" class="undefined-text-0" data-fill-palette-color="primary" id="text-0"></path></svg></g></svg></g></svg></g></svg></g></svg></g></svg></g></svg></g><path d="M171.708 105.132L171.708 40.085 4.679 40.085 4.679 207.115 171.708 207.115 171.708 142.068 169.459 142.068 169.459 204.866 6.927 204.866 6.927 42.334 169.459 42.334 169.459 105.132Z" fill="#ffffff" stroke="transparent" data-fill-palette-color="primary"></path></svg></g><defs></defs></svg><rect width="395.52" height="247.2" fill="none" stroke="none" visibility="hidden"></rect></g></svg></g></svg>