<svg width="238" height="294" viewBox="0 0 238 294" fill="none" xmlns="http://www.w3.org/2000/svg">
<path d="M0 176.006H113.227V62.1342H0V176.006Z" fill="white"/>
<path d="M43.4891 68.8818H38.24V74.1609H48.7389V68.8818H43.4891Z" fill="#040606"/>
<path d="M74.9869 68.8818H69.7372V74.1609H74.9869V68.8818Z" fill="#040606"/>
<path d="M64.4875 74.1611H59.2378V68.882H53.9886V74.1611H48.7389V79.4407V84.7198H43.4891V89.9994H48.7389V95.2791H53.9886H59.2378V89.9994H53.9886V84.7198V79.4407H59.2378H64.4875H69.7372V74.1611H64.4875Z" fill="#040606"/>
<path d="M74.9869 84.7199V79.4408H69.7372V89.9995H74.9869V84.7199Z" fill="#040606"/>
<path d="M38.24 95.2792V100.559H43.4891V89.9996H38.24V95.2792Z" fill="#040606"/>
<path d="M64.4874 89.9994V95.2791H69.7372V89.9994H64.4874Z" fill="#040606"/>
<path d="M43.4891 126.956V132.236H48.7389V126.956H43.4891Z" fill="#040606"/>
<path d="M6.74231 100.559V105.838H11.992V100.559H6.74231Z" fill="#040606"/>
<path d="M64.4874 105.838H69.7372V111.118H74.9869V105.838H80.2361V100.559H74.9869V95.2793H69.7372V100.559H64.4874H59.2377H53.9886H48.7388V105.838H53.9886H59.2377V111.118H64.4874V105.838Z" fill="#040606"/>
<path d="M101.234 105.838V100.559H95.9853V111.118H101.234V105.838Z" fill="#040606"/>
<path d="M6.74231 116.397H11.992V111.117H6.74231V116.397Z" fill="#040606"/>
<path d="M32.9902 116.397H38.24V111.117H43.4891V105.838H38.24H32.9902V100.559H27.7405V105.838V111.117H32.9902V116.397Z" fill="#040606"/>
<path d="M59.2377 111.117H53.9886V116.397H59.2377V111.117Z" fill="#040606"/>
<path d="M90.7355 111.118V100.559H85.4858V111.118H80.2361H74.9869V116.397H80.2361H85.4858V121.676H90.7355V116.397H95.9853V111.118H90.7355Z" fill="#040606"/>
<path d="M32.9902 116.397H27.7404V111.117H22.4913V105.838V100.559H17.2416V105.838H11.9918V111.117H17.2416V116.397H22.4913V121.676H27.7404V126.956H32.9902V121.676V116.397Z" fill="#040606"/>
<path d="M43.4891 121.676H48.7389V126.956H53.9886V121.676V116.397H48.7389V111.117H43.4891V116.397V121.676Z" fill="#040606"/>
<path d="M101.234 116.397H95.9853V126.956H90.7355V132.236H95.9853V137.515H101.234V142.795V148.074H106.484V142.795V137.515V132.236H101.234V126.956H106.484V121.676H101.234V116.397Z" fill="#040606"/>
<path d="M11.992 121.676H6.74231V132.235H11.992V137.515H17.2418V132.235V126.956H11.992V121.676Z" fill="#040606"/>
<path d="M17.2417 121.676V126.956H22.4914V121.676H17.2417Z" fill="#040606"/>
<path d="M74.9869 121.676V116.397H59.2377V126.956H64.4875V121.676H69.7372V126.956H74.9869V132.236H80.2361V126.956H85.4858V121.676H80.2361H74.9869Z" fill="#040606"/>
<path d="M22.4913 132.236H27.7405V126.956H22.4913V132.236Z" fill="#040606"/>
<path d="M38.24 126.956H32.9902V137.515H38.24V142.794V148.074H43.4891V142.794V137.515V132.236H38.24V126.956Z" fill="#040606"/>
<path d="M53.9886 132.236H59.2377V126.956H53.9886V132.236Z" fill="#040606"/>
<path d="M48.7388 137.515H53.9886V132.235H48.7388V137.515Z" fill="#040606"/>
<path d="M69.7372 142.794V132.236H64.4875V137.515H59.2377V142.794H64.4875H69.7372Z" fill="#040606"/>
<path d="M53.9886 142.794H48.7388V148.074H53.9886V142.794Z" fill="#040606"/>
<path d="M59.2377 153.354H64.4875V148.074H59.2377V153.354Z" fill="#040606"/>
<path d="M73.7726 136.294H86.8967V149.492H73.7726V136.294ZM90.8338 148.074V132.229H69.7314V153.452H74.987V158.632H80.2361V153.452H85.4859V158.632H90.7356V153.452H90.8338V153.353H95.9853V158.632H101.234H106.484V153.353H101.234V148.074H95.9853H90.8338Z" fill="#040606"/>
<path d="M43.4891 158.633V163.912H48.7389V148.074H43.4891V153.353V158.633Z" fill="#040606"/>
<path d="M64.4874 158.633V163.912H74.9869V158.633H69.7372H64.4874Z" fill="#040606"/>
<path d="M38.24 169.192H43.4891V163.912H38.24V169.192Z" fill="#040606"/>
<path d="M53.9886 169.192H59.2377V163.912H48.7388V169.192H53.9886Z" fill="#040606"/>
<path d="M95.9853 163.912V169.192H106.484V163.912H101.234H95.9853Z" fill="#040606"/>
<path d="M77.7098 145.533H82.9595V140.253H77.7098V145.533Z" fill="#040606"/>
<path d="M29.0532 91.3195H10.6795V72.8416H29.0532V91.3195ZM32.9904 68.882H6.74231V95.2791H32.9904V68.882Z" fill="#040606"/>
<path d="M25.1159 76.8014H14.6165V87.3601H25.1159V76.8014Z" fill="#040606"/>
<path d="M102.546 91.3195H84.1732V72.8416H102.546V91.3195ZM80.2361 68.882V95.2791H106.484V68.882H80.2361Z" fill="#040606"/>
<path d="M88.1104 87.3601H98.6098V76.8014H88.1104V87.3601Z" fill="#040606"/>
<path d="M10.6795 146.82H29.0532V165.298H10.6795V146.82ZM6.74231 169.258H32.9904V142.861H6.74231V169.258Z" fill="#040606"/>
<path d="M14.6165 161.339H25.1159V150.78H14.6165V161.339Z" fill="#040606"/>
<path d="M24.123 57.9323V55.9323H28.651V57.9323H24.123ZM30.7909 61.4363V50.2363H32.9349L37.7029 58.1403H36.5669L41.2549 50.2363H43.3829L43.4149 61.4363H40.9829L40.9669 53.9643H41.4149L37.6709 60.2523H36.5029L32.6789 53.9643H33.2229V61.4363H30.7909ZM48.4561 54.7483H53.8481V56.7643H48.4561V54.7483ZM48.6481 59.3563H54.7441V61.4363H46.0721V50.2363H54.5361V52.3163H48.6481V59.3563ZM56.8065 61.4363V50.2363H58.9505L65.5585 58.3003H64.5185V50.2363H67.0785V61.4363H64.9505L58.3265 53.3723H59.3665V61.4363H56.8065ZM74.7044 61.6283C73.1151 61.6283 71.8724 61.1856 70.9764 60.3003C70.0804 59.4149 69.6324 58.1509 69.6324 56.5083V50.2363H72.2244V56.4123C72.2244 57.4789 72.4431 58.2469 72.8804 58.7163C73.3177 59.1856 73.9311 59.4203 74.7204 59.4203C75.5097 59.4203 76.1231 59.1856 76.5604 58.7163C76.9977 58.2469 77.2164 57.4789 77.2164 56.4123V50.2363H79.7764V56.5083C79.7764 58.1509 79.3284 59.4149 78.4324 60.3003C77.5364 61.1856 76.2937 61.6283 74.7044 61.6283ZM81.8418 57.9323V55.9323H86.3698V57.9323H81.8418Z" fill="white"/>
<path d="M198.919 220.013H237.843V0.000472055H198.919V220.013Z" fill="#FF823C"/>
<path d="M206.157 211.039H237.843V0.000148071H206.157V211.039Z" fill="#FF9457"/>
<path d="M149.298 294H128.643L127.627 273.013L127.638 273.011C121.043 269.826 115.251 265.658 110.933 260.853C103.53 252.614 86.7733 218.75 86.7733 218.75C83.2337 215.654 81.1511 211.183 81.1412 206.465C81.1295 201.209 81.6837 195.588 82.8987 191.181C83.3898 189.401 84.1902 187.826 85.1754 186.6C83.5822 183.317 82.7876 179.685 82.8975 176.006H101.482C101.672 176.467 101.876 176.922 102.094 177.371C101.025 178.703 100.156 180.411 99.6231 182.345C98.3041 187.13 97.7019 193.235 97.7142 198.942C97.7253 204.001 123.793 247.932 124.442 249.025C125.826 252.252 127.626 255.289 130.067 258.005C134.776 263.246 141.139 269.826 148.377 274.98L149.298 294ZM110.57 62.1342H94.5611V46.1077C94.5611 40.6404 98.9841 36.1928 104.42 36.1928H110.57V62.1342Z" fill="#FB752A"/>
<path d="M101.482 176.006H82.8976C82.9075 175.689 82.9233 175.372 82.9461 175.055C83.4314 168.352 83.8541 160.615 84.3113 153.452H85.4859V158.633H90.7356V153.452H90.8339V153.354H95.9854V158.633H100.094C99.9792 160.435 99.8617 162.202 99.7407 163.912H95.9854V169.192H99.7489C99.9985 171.536 100.584 173.831 101.482 176.006ZM86.8967 149.493H84.5727C84.8194 145.899 85.0807 142.544 85.3701 139.654C85.8794 139.547 86.3892 139.485 86.8967 139.464V149.493ZM100.743 148.074H95.9854H90.8339V132.236H95.9854V137.515H101.235V140.163C101.067 142.742 100.905 145.4 100.743 148.074ZM101.794 132.236H101.235V126.956H102.251C102.092 128.597 101.94 130.369 101.794 132.236ZM90.7356 132.23H87.5948C87.1744 128.621 86.7763 125.075 86.4313 121.676H90.7356V120.577C92.026 120.62 93.3181 120.875 94.5611 121.308V116.397H95.9854V111.118H94.5611V95.2791H106.484V68.8821H94.5611V62.1342H110.57V128.073C109.298 127.266 107.917 126.684 106.484 126.391V121.676H101.235V116.397H95.9854V121.676V126.956H90.7356V132.23ZM95.9854 100.559V105.838V111.118H101.235V105.838V100.559H95.9854Z" fill="#F78E85"/>
<path d="M101.234 111.118H95.9853V100.559H101.234V105.838V111.118Z" fill="#040606"/>
<path d="M90.7356 121.676H86.4313C86.419 121.556 86.4067 121.435 86.3944 121.314C87.6719 120.805 89.0091 120.571 90.3526 120.571C90.4807 120.571 90.6075 120.573 90.7356 120.577V121.676ZM95.9853 116.397H94.5611V111.118H95.9853V116.397Z" fill="#040606"/>
<path d="M101.234 140.163V137.515H95.9853V132.235H90.8338V132.23H90.7355V126.956H95.9853V121.676V116.397H101.234V121.676H106.484V126.391C105.791 126.249 105.087 126.174 104.378 126.174C103.69 126.174 102.998 126.244 102.307 126.39C102.288 126.577 102.27 126.765 102.251 126.956H101.234V132.235H101.794C101.599 134.733 101.414 137.402 101.234 140.163Z" fill="#040606"/>
<path d="M100.094 158.632H95.9853V153.353H90.8338V153.452H90.7356V158.632H85.4859V153.452H84.3113C84.3966 152.108 84.4838 150.785 84.5726 149.492H86.8967V139.464C87.0195 139.459 87.1428 139.457 87.2656 139.457C87.6655 139.457 88.0637 139.483 88.4589 139.532C88.1672 137.087 87.876 134.645 87.5948 132.229H90.7356H90.8338V132.235V148.074H95.9853H100.743C100.528 151.618 100.315 155.19 100.094 158.632Z" fill="#040606"/>
<path d="M102.546 91.3196H94.561V87.36H98.6099V76.8013H94.561V72.8417H102.546V91.3196Z" fill="#97C0E3"/>
<path d="M99.7488 169.192H95.9853V163.912H99.7406C99.719 164.221 99.6968 164.528 99.6746 164.833C99.5687 166.294 99.5956 167.752 99.7488 169.192Z" fill="#040606"/>
<path d="M106.484 95.2791H94.561V91.3195H102.546V72.8416H94.561V68.882H106.484V95.2791Z" fill="#040606"/>
<path d="M94.561 87.3601H98.6099V76.8014H94.561V87.3601Z" fill="#040606"/>
<path d="M204.817 273.882C193.376 278.713 178.753 285.766 164.898 282.823C151.044 279.88 138.131 266.979 130.067 258.005C122.028 249.058 120.928 236.62 118.817 225.396C117.112 216.334 110.53 210.938 107.884 202.107C138.422 191.483 176.1 190.496 209.813 202.089C221.673 226.555 233.094 261.941 204.817 273.882Z" fill="#F9B4AF"/>
<path d="M124.455 249.046C124.455 249.046 97.7253 204.065 97.7142 198.942C97.7019 193.234 98.3041 187.13 99.6231 182.345C101.516 175.482 107.637 171.441 111.944 177.093C111.986 177.149 112.027 177.204 112.069 177.26C115.163 181.47 116.225 186.804 117.206 191.946C131.095 199.916 128.904 196.647 138.443 209.556C138.6 214.217 151.422 228.206 147.509 232.74C144.298 236.461 128.248 252.163 124.455 249.046Z" fill="#F9B4AF"/>
<path d="M111.844 191.145L149.298 198.567C142.085 181.654 130.991 166.758 118.258 154.217C118.551 147.802 118.805 141.137 116.487 135.291C114.169 129.445 108.2 125.144 102.307 126.39C101.277 136.675 100.574 152.392 99.6745 164.833C99.2565 170.611 100.906 176.34 104.277 181.036C106.806 184.557 109.326 187.892 111.844 191.145Z" fill="#F78E85"/>
<path d="M174.616 237.71C171.975 233.356 168.713 229.341 165.173 225.767C157.972 218.498 147.762 214.18 139.297 208.454L142.682 208.28H184.468C178.81 215.493 174.789 223.939 172.785 232.952C173.4 233.633 173.962 234.348 174.489 235.086C174.493 235.945 174.536 236.821 174.616 237.71Z" fill="#F9A7A0"/>
<path d="M159.088 195.182H159.633C165.576 188.841 169.382 179.059 169.35 170.374C158.114 154.168 142.706 140.98 125.945 130.674C124.932 124.323 123.824 117.735 120.179 112.451C116.535 107.166 109.365 104.106 103.42 106.474C104.713 119.313 106.723 134.159 108.016 146.999L159.088 195.182Z" fill="#F78E85"/>
<path d="M121.465 214.251C119.73 211.665 117.854 209.174 115.851 206.792C117.443 207.737 119.297 208.28 121.276 208.28H135.295C130.35 209.312 125.612 211.351 121.465 214.251ZM111.583 202.083C109.54 199.989 107.391 198 105.146 196.127C106.954 194.722 108.762 193.318 110.57 191.913V197.513C110.57 199.146 110.934 200.695 111.583 202.083Z" fill="#F9A7A0"/>
<path d="M197.865 206.506H121.231C116.317 206.506 112.333 202.501 112.333 197.559V24.7578C112.333 19.8157 116.317 15.8096 121.23 15.8096H197.865C202.779 15.8096 206.762 19.8157 206.762 24.7578V197.559C206.762 202.501 202.779 206.506 197.865 206.506Z" fill="#E3ECF6"/>
<path d="M195.975 47.6859H123.121C119.964 47.6859 117.405 50.2596 117.405 53.4348V126.817C117.405 129.991 119.964 132.565 123.121 132.565H195.975C199.132 132.565 201.692 129.991 201.692 126.817V53.4348C201.692 50.2596 199.132 47.6859 195.975 47.6859Z" fill="#FF9457"/>
<path d="M183.282 152.411C183.282 147.955 179.691 144.343 175.26 144.343H143.836C139.405 144.343 135.813 147.955 135.813 152.411C135.813 156.868 139.405 160.479 143.836 160.479H175.26C179.691 160.479 183.282 156.868 183.282 152.411Z" fill="#FF9457"/>
<path d="M121.276 17.5827C117.317 17.5827 114.096 20.822 114.096 24.804V197.513C114.096 201.495 117.317 204.734 121.276 204.734H197.82C201.779 204.734 205 201.495 205 197.513V24.804C205 20.822 201.779 17.5827 197.82 17.5827H121.276ZM197.82 208.28H121.276C115.373 208.28 110.57 203.449 110.57 197.513V24.804C110.57 18.8675 115.373 14.0371 121.276 14.0371H197.82C203.723 14.0371 208.526 18.8675 208.526 24.804V197.513C208.526 203.449 203.723 208.28 197.82 208.28Z" fill="#040606"/>
<path d="M167.547 21.0989H151.548C149.627 21.0989 148.069 19.533 148.069 17.6009V17.565C148.069 15.6329 149.627 14.0664 151.548 14.0664H167.547C169.469 14.0664 171.026 15.6329 171.026 17.565V17.6009C171.026 19.533 169.469 21.0989 167.547 21.0989Z" fill="#040606"/>
<path d="M124.384 20.2518C124.922 20.2518 125.386 20.3628 125.774 20.5848C126.163 20.8068 126.462 21.1314 126.673 21.5587C126.884 21.9804 126.99 22.5076 126.99 23.1402C126.99 23.8117 126.862 24.3805 126.607 24.8466C126.357 25.3128 126.01 25.6679 125.566 25.9121C125.122 26.1563 124.606 26.2784 124.018 26.2784C123.713 26.2784 123.419 26.2451 123.136 26.1785C122.853 26.1119 122.608 26.012 122.403 25.8788L122.903 24.8883C123.063 24.9992 123.235 25.0769 123.419 25.1213C123.602 25.1602 123.793 25.1796 123.993 25.1796C124.492 25.1796 124.889 25.027 125.183 24.7218C125.483 24.4166 125.633 23.9643 125.633 23.365C125.633 23.2651 125.63 23.1541 125.624 23.032C125.619 22.9099 125.605 22.7879 125.583 22.6658L125.949 23.0154C125.855 23.2318 125.722 23.4149 125.55 23.5648C125.377 23.709 125.178 23.82 124.95 23.8977C124.723 23.9698 124.467 24.0059 124.184 24.0059C123.813 24.0059 123.474 23.931 123.169 23.7812C122.869 23.6313 122.628 23.4205 122.445 23.1486C122.267 22.8766 122.178 22.5576 122.178 22.1913C122.178 21.7918 122.275 21.4477 122.47 21.1591C122.669 20.8706 122.936 20.6486 123.269 20.4932C123.607 20.3323 123.979 20.2518 124.384 20.2518ZM124.467 21.259C124.273 21.259 124.104 21.2951 123.96 21.3672C123.815 21.4338 123.702 21.5337 123.618 21.6669C123.535 21.7945 123.494 21.9471 123.494 22.1247C123.494 22.3911 123.582 22.6047 123.76 22.7657C123.943 22.921 124.184 22.9987 124.484 22.9987C124.678 22.9987 124.85 22.9627 125 22.8905C125.156 22.8128 125.275 22.7074 125.358 22.5742C125.441 22.441 125.483 22.2912 125.483 22.1247C125.483 21.9582 125.441 21.8112 125.358 21.6835C125.28 21.5504 125.167 21.4477 125.017 21.3756C124.867 21.2979 124.684 21.259 124.467 21.259ZM128.402 23.2568C128.18 23.2568 127.989 23.1819 127.828 23.032C127.673 22.8766 127.595 22.6796 127.595 22.441C127.595 22.2024 127.673 22.011 127.828 21.8667C127.989 21.7168 128.18 21.6419 128.402 21.6419C128.63 21.6419 128.821 21.7168 128.977 21.8667C129.132 22.011 129.21 22.2024 129.21 22.441C129.21 22.6796 129.132 22.8766 128.977 23.032C128.821 23.1819 128.63 23.2568 128.402 23.2568ZM128.402 26.2451C128.18 26.2451 127.989 26.1701 127.828 26.0203C127.673 25.8649 127.595 25.6679 127.595 25.4293C127.595 25.1907 127.673 24.9992 127.828 24.855C127.989 24.7051 128.18 24.6302 128.402 24.6302C128.63 24.6302 128.821 24.7051 128.977 24.855C129.132 24.9992 129.21 25.1907 129.21 25.4293C129.21 25.6679 129.132 25.8649 128.977 26.0203C128.821 26.1701 128.63 26.2451 128.402 26.2451ZM129.765 26.1785V25.3045L132.013 23.1819C132.19 23.0209 132.321 22.8766 132.404 22.749C132.487 22.6214 132.542 22.5048 132.57 22.3994C132.604 22.294 132.62 22.1969 132.62 22.1081C132.62 21.875 132.54 21.6974 132.379 21.5753C132.223 21.4477 131.993 21.3839 131.688 21.3839C131.444 21.3839 131.216 21.4311 131.005 21.5254C130.8 21.6197 130.625 21.7668 130.481 21.9666L129.499 21.3339C129.721 21.001 130.031 20.7374 130.431 20.5432C130.831 20.3489 131.291 20.2518 131.813 20.2518C132.246 20.2518 132.623 20.324 132.945 20.4682C133.272 20.607 133.525 20.804 133.702 21.0592C133.885 21.3145 133.977 21.6197 133.977 21.9749C133.977 22.1636 133.952 22.3522 133.902 22.5409C133.858 22.724 133.763 22.9183 133.619 23.1236C133.48 23.3289 133.275 23.5592 133.003 23.8145L131.139 25.5708L130.88 25.0797H134.168V26.1785H129.765ZM135.624 26.1785V20.8511L136.206 21.4338H134.458V20.3517H136.972V26.1785H135.624Z" fill="white"/>
<path d="M182.833 20.2969H182.251V21.8486H182.833V20.2969Z" fill="white"/>
<path d="M183.617 19.6625H183.034V21.8486H183.617V19.6625Z" fill="white"/>
<path d="M184.401 19.2356H183.819V21.8486H184.401V19.2356Z" fill="white"/>
<path d="M188.251 21.3075L188.59 21.6497C188.887 21.3845 189.34 21.3916 189.626 21.6738L189.966 21.3316C189.492 20.8612 188.735 20.8547 188.251 21.3075Z" fill="white"/>
<path d="M187.681 20.7343L188.021 21.0765C188.632 20.4961 189.595 20.5026 190.196 21.1006L190.536 20.759C189.748 19.9722 188.48 19.9657 187.681 20.7343Z" fill="white"/>
<path d="M187.15 20.2011L187.492 20.5445C188.395 19.6713 189.833 19.6772 190.725 20.5686L191.065 20.227C189.985 19.1463 188.241 19.1386 187.15 20.2011Z" fill="white"/>
<path d="M198.654 19.9894H197.967V19.4102H194.145V21.8486H197.967V21.2689H198.654V19.9894Z" fill="white"/>
<path d="M134.604 52.2349V54.0289H123.797V64.8916H122.012V52.2349H134.604Z" fill="#F9F9F8"/>
<path d="M184.492 127.792V125.997H195.299V115.135H197.083V127.792H184.492Z" fill="#F9F9F8"/>
<path d="M197.112 64.9265H195.328V54.0585H184.527V52.2639H197.112V64.9265Z" fill="#F9F9F8"/>
<path d="M121.984 115.1H123.768V125.968H134.569V127.762H121.984V115.1Z" fill="#F9F9F8"/>
<path d="M188.399 122.655H130.696V64.6234H188.399V122.655Z" fill="white"/>
<path d="M152.859 68.062H150.185V70.7527H155.535V68.062H152.859Z" fill="#040606"/>
<path d="M168.912 68.062H166.236V70.7527H168.912V68.062Z" fill="#040606"/>
<path d="M163.561 70.7527H160.886V68.062H158.21V70.7527H155.535V73.4434V76.1335H152.859V78.8242H155.535V81.5149H158.21H160.886V78.8242H158.21V76.1335V73.4434H160.886H163.561H166.236V70.7527H163.561Z" fill="#040606"/>
<path d="M168.912 76.1333V73.4432H166.236V78.824H168.912V76.1333Z" fill="#040606"/>
<path d="M150.185 81.5147V84.2048H152.859V78.8241H150.185V81.5147Z" fill="#040606"/>
<path d="M163.561 78.8242V81.5149H166.236V78.8242H163.561Z" fill="#040606"/>
<path d="M152.859 97.6577V100.348H155.535V97.6577H152.859Z" fill="#040606"/>
<path d="M134.133 84.2048V86.8955H136.808V84.2048H134.133Z" fill="#040606"/>
<path d="M163.561 86.8955H166.236V89.5862H168.912V86.8955H171.586V84.2048H168.912V81.5147H166.236V84.2048H163.561H160.886H158.21H155.535V86.8955H158.21H160.886V89.5862H163.561V86.8955Z" fill="#040606"/>
<path d="M182.288 86.8955V84.2048H179.613V89.5862H182.288V86.8955Z" fill="#040606"/>
<path d="M134.133 92.2766H136.808V89.5859H134.133V92.2766Z" fill="#040606"/>
<path d="M147.509 92.2766H150.185V89.5859H152.859V86.8952H150.185H147.509V84.2046H144.834V86.8952V89.5859H147.509V92.2766Z" fill="#040606"/>
<path d="M160.886 89.5859H158.21V92.2766H160.886V89.5859Z" fill="#040606"/>
<path d="M176.937 89.5864V84.205H174.262V89.5864H171.586H168.912V92.2771H171.586H174.262V94.9678H176.937V92.2771H179.613V89.5864H176.937Z" fill="#040606"/>
<path d="M147.509 92.2769H144.834V89.5862H142.158V86.8956V84.2049H139.483V86.8956H136.808V89.5862H139.483V92.2769H142.158V94.9676H144.834V97.6577H147.509V94.9676V92.2769Z" fill="#040606"/>
<path d="M152.859 94.9676H155.535V97.6577H158.21V94.9676V92.2769H155.535V89.5862H152.859V92.2769V94.9676Z" fill="#040606"/>
<path d="M182.288 92.2767H179.613V97.6575H176.937V100.348H179.613V103.039H182.288V105.729V108.42H184.963V105.729V103.039V100.348H182.288V97.6575H184.963V94.9674H182.288V92.2767Z" fill="#040606"/>
<path d="M136.808 94.9676H134.133V100.348H136.808V103.039H139.484V100.348V97.6577H136.808V94.9676Z" fill="#040606"/>
<path d="M139.483 94.9676V97.6577H142.158V94.9676H139.483Z" fill="#040606"/>
<path d="M168.912 94.9676V92.2769H160.886V97.6577H163.561V94.9676H166.236V97.6577H168.912V100.348H171.586V97.6577H174.262V94.9676H171.586H168.912Z" fill="#040606"/>
<path d="M142.158 100.348H144.834V97.6577H142.158V100.348Z" fill="#040606"/>
<path d="M150.185 97.6575H147.509V103.039H150.185V105.729V108.42H152.859V105.729V103.039V100.348H150.185V97.6575Z" fill="#040606"/>
<path d="M158.21 100.348H160.886V97.6577H158.21V100.348Z" fill="#040606"/>
<path d="M155.535 103.039H158.21V100.348H155.535V103.039Z" fill="#040606"/>
<path d="M166.236 105.729V100.348H163.561V103.039H160.886V105.729H163.561H166.236Z" fill="#040606"/>
<path d="M158.21 105.729H155.535V108.42H158.21V105.729Z" fill="#040606"/>
<path d="M160.886 111.11H163.561V108.42H160.886V111.11Z" fill="#040606"/>
<path d="M168.293 102.417H174.981V109.143H168.293V102.417ZM176.988 108.42V100.345H166.233V111.161H168.912V113.801H171.586V111.161H174.262V113.801H176.937V111.161H176.988V111.11H179.613V113.801H182.288H184.963V111.11H182.288V108.42H179.613H176.988Z" fill="#040606"/>
<path d="M152.859 113.801V116.491H155.535V108.42H152.859V111.11V113.801Z" fill="#040606"/>
<path d="M163.561 113.801V116.491H168.912V113.801H166.236H163.561Z" fill="#040606"/>
<path d="M150.185 119.182H152.859V116.491H150.185V119.182Z" fill="#040606"/>
<path d="M158.21 119.182H160.886V116.491H155.535V119.182H158.21Z" fill="#040606"/>
<path d="M179.613 116.491V119.182H184.963V116.491H182.288H179.613Z" fill="#040606"/>
<path d="M170.299 107.125H172.974V104.434H170.299V107.125Z" fill="#040606"/>
<path d="M145.503 79.4969H136.139V70.0801H145.503V79.4969ZM147.509 68.062H134.133V81.5149H147.509V68.062Z" fill="#040606"/>
<path d="M143.496 72.0977H138.146V77.4785H143.496V72.0977Z" fill="#040606"/>
<path d="M182.957 79.4969H173.593V70.0801H182.957V79.4969ZM171.586 68.062V81.5149H184.963V68.062H171.586Z" fill="#040606"/>
<path d="M180.95 72.0977H175.6V77.4785H180.95V72.0977Z" fill="#040606"/>
<path d="M136.139 107.781H145.503V117.197H136.139V107.781ZM134.133 119.215H147.509V105.762H134.133V119.215Z" fill="#040606"/>
<path d="M138.146 115.18H143.496V109.799H138.146V115.18Z" fill="#040606"/>
<path d="M147.208 158.804C146.48 158.804 145.782 158.708 145.115 158.518C144.447 158.318 143.91 158.063 143.503 157.751L144.218 156.165C144.608 156.442 145.067 156.672 145.596 156.854C146.133 157.027 146.675 157.114 147.221 157.114C147.637 157.114 147.97 157.075 148.222 156.997C148.482 156.91 148.672 156.793 148.794 156.646C148.915 156.498 148.976 156.329 148.976 156.139C148.976 155.896 148.88 155.705 148.69 155.567C148.499 155.419 148.248 155.302 147.936 155.216C147.624 155.12 147.277 155.034 146.896 154.956C146.523 154.869 146.146 154.765 145.765 154.644C145.392 154.522 145.05 154.366 144.738 154.176C144.426 153.985 144.17 153.734 143.971 153.422C143.78 153.11 143.685 152.711 143.685 152.226C143.685 151.706 143.823 151.233 144.101 150.809C144.387 150.375 144.811 150.033 145.375 149.782C145.947 149.522 146.662 149.392 147.52 149.392C148.092 149.392 148.655 149.461 149.21 149.6C149.764 149.73 150.254 149.929 150.679 150.198L150.029 151.797C149.604 151.554 149.179 151.376 148.755 151.264C148.33 151.142 147.914 151.082 147.507 151.082C147.099 151.082 146.766 151.129 146.506 151.225C146.246 151.32 146.059 151.446 145.947 151.602C145.834 151.749 145.778 151.922 145.778 152.122C145.778 152.356 145.873 152.546 146.064 152.694C146.254 152.832 146.506 152.945 146.818 153.032C147.13 153.118 147.472 153.205 147.845 153.292C148.226 153.378 148.603 153.478 148.976 153.591C149.357 153.703 149.704 153.855 150.016 154.046C150.328 154.236 150.579 154.488 150.77 154.8C150.969 155.112 151.069 155.506 151.069 155.983C151.069 156.494 150.926 156.962 150.64 157.387C150.354 157.811 149.925 158.154 149.353 158.414C148.789 158.674 148.074 158.804 147.208 158.804ZM156.863 158.804C156.161 158.804 155.506 158.691 154.9 158.466C154.302 158.232 153.782 157.902 153.34 157.478C152.898 157.053 152.551 156.555 152.3 155.983C152.057 155.411 151.936 154.782 151.936 154.098C151.936 153.413 152.057 152.785 152.3 152.213C152.551 151.641 152.898 151.142 153.34 150.718C153.79 150.293 154.315 149.968 154.913 149.743C155.511 149.509 156.165 149.392 156.876 149.392C157.665 149.392 158.375 149.53 159.008 149.808C159.649 150.076 160.186 150.475 160.62 151.004L159.268 152.252C158.956 151.896 158.609 151.632 158.228 151.459C157.846 151.277 157.431 151.186 156.98 151.186C156.555 151.186 156.165 151.255 155.81 151.394C155.454 151.532 155.147 151.732 154.887 151.992C154.627 152.252 154.423 152.559 154.276 152.915C154.137 153.27 154.068 153.664 154.068 154.098C154.068 154.531 154.137 154.925 154.276 155.281C154.423 155.636 154.627 155.944 154.887 156.204C155.147 156.464 155.454 156.663 155.81 156.802C156.165 156.94 156.555 157.01 156.98 157.01C157.431 157.01 157.846 156.923 158.228 156.75C158.609 156.568 158.956 156.295 159.268 155.931L160.62 157.179C160.186 157.707 159.649 158.11 159.008 158.388C158.375 158.665 157.66 158.804 156.863 158.804ZM160.681 158.648L164.737 149.548H166.817L170.886 158.648H168.676L165.348 150.614H166.18L162.839 158.648H160.681ZM162.709 156.698L163.268 155.099H167.948L168.52 156.698H162.709ZM171.83 158.648V149.548H173.572L178.941 156.1H178.096V149.548H180.176V158.648H178.447L173.065 152.096H173.91V158.648H171.83Z" fill="white"/>
<path d="M117.509 74.0935H201.587V73.5055H117.509V74.0935Z" fill="white"/>
<path d="M137.749 60.1925V58.7768H140.954V60.1925H137.749ZM142.469 62.6729V54.7448H143.986L147.362 60.3397H146.557L149.876 54.7448H151.382L151.405 62.6729H149.683L149.672 57.3837H149.989L147.339 61.8347H146.512L143.805 57.3837H144.19V62.6729H142.469ZM154.973 57.9387H158.79V59.3657H154.973V57.9387ZM155.109 61.2005H159.424V62.6729H153.286V54.7448H159.277V56.2172H155.109V61.2005ZM160.884 62.6729V54.7448H162.402L167.079 60.453H166.343V54.7448H168.155V62.6729H166.649L161.96 56.9647H162.696V62.6729H160.884ZM173.553 62.8088C172.428 62.8088 171.549 62.4954 170.915 61.8687C170.28 61.242 169.963 60.3473 169.963 59.1845V54.7448H171.798V59.1166C171.798 59.8716 171.953 60.4152 172.262 60.7475C172.572 61.0797 173.006 61.2458 173.565 61.2458C174.124 61.2458 174.558 61.0797 174.867 60.7475C175.177 60.4152 175.332 59.8716 175.332 59.1166V54.7448H177.144V59.1845C177.144 60.3473 176.827 61.242 176.192 61.8687C175.558 62.4954 174.678 62.8088 173.553 62.8088ZM178.606 60.1925V58.7768H181.811V60.1925H178.606Z" fill="white"/>
<path d="M100.814 179.334C105.992 172.082 111.171 164.829 116.35 157.577C120 162.822 121.535 168.756 120.816 175.118C120.096 181.479 115.253 190.105 110.525 194.393C105.87 191.577 103.116 184.282 100.814 179.334Z" fill="#F9B4AF"/>
<path d="M189.412 267.65C179.668 259.384 171.713 240.024 175.414 228.378C178.64 218.231 182.325 211.919 197.236 197.654C196.703 186.813 198.435 183.622 196.475 172.289C186.195 163.045 178.097 150.94 182.302 137.732C194.066 146.247 206.511 154.149 218.275 162.665C221.199 180.054 224.284 197.257 227.208 214.646C228.846 224.391 230.49 234.304 229.281 244.112C227.274 260.401 212.67 279.547 194.471 270.939C192.652 270.078 190.962 268.965 189.412 267.65Z" fill="#F9B4AF"/>
<path d="M184.056 256.443C180.028 237.293 166.742 220.686 148.954 212.714C146.913 211.799 145.09 214.817 147.15 215.74C164.191 223.378 176.799 238.973 180.663 257.342C181.13 259.562 184.523 258.665 184.056 256.443Z" fill="#F78E85"/>
<path d="M205.443 172.922C191.156 168.295 182.455 154.338 184.161 139.398C184.419 137.144 180.909 137.12 180.653 139.357C178.769 155.865 188.809 171.24 204.472 176.313C206.625 177.01 207.588 173.617 205.443 172.922Z" fill="#F78E85"/>
<path d="M118.982 158.056C117.904 156.061 114.853 157.802 115.932 159.801C121.458 170.034 116.666 186.42 108.118 194.232C106.444 195.762 108.901 198.281 110.57 196.755C120.279 187.881 125.231 169.63 118.982 158.056Z" fill="#F78E85"/>
<path d="M199.316 170.983C199.253 168.72 195.745 168.667 195.809 170.943C196.044 179.351 196.281 187.759 196.517 196.166C196.58 198.43 200.088 198.481 200.025 196.206C199.789 187.799 199.552 179.391 199.316 170.983Z" fill="#F78E85"/>
<path d="M197.706 195.795C185 204.586 176.112 217.988 172.786 232.952C173.853 234.136 174.765 235.421 175.604 236.757C178.108 221.563 186.745 207.647 199.442 198.862C201.287 197.585 199.572 194.504 197.706 195.795Z" fill="#F78E85"/>
<path d="M199.973 194.369C199.785 187.653 199.596 180.938 199.407 174.223C201.018 175.041 202.709 175.742 204.472 176.313C204.67 176.377 204.859 176.407 205.036 176.407C205.748 176.407 206.271 175.93 206.508 175.323C207.396 175.773 208.254 176.209 209.056 176.551C207.407 177.31 206.553 179.124 205.831 180.797C203.878 185.321 201.926 189.845 199.973 194.369Z" fill="#F9A7A0"/>
<path d="M205.036 176.407C204.859 176.407 204.67 176.377 204.472 176.313C202.709 175.742 201.018 175.041 199.407 174.223C199.395 173.788 199.383 173.353 199.37 172.919C199.472 172.909 199.578 172.905 199.691 172.905C199.891 172.905 200.109 172.919 200.35 172.95C202.321 173.201 204.489 174.3 206.508 175.323C206.271 175.93 205.748 176.407 205.036 176.407Z" fill="#F78E85"/>
<path d="M199.387 195.727C199.259 195.642 199.12 195.576 198.973 195.535C198.895 189.444 198.213 183.283 197.861 177.211C197.736 175.077 197.374 173.103 199.37 172.919C199.383 173.353 199.395 173.788 199.407 174.223C199.596 180.938 199.785 187.653 199.973 194.369C199.778 194.822 199.582 195.274 199.387 195.727Z" fill="#F78E85"/>
<path d="M198.98 196.669C198.98 196.292 198.978 195.913 198.973 195.535C199.12 195.576 199.259 195.642 199.387 195.727C199.251 196.041 199.116 196.355 198.98 196.669Z" fill="#F78E85"/>
<path d="M148.195 271.209L149.298 294H227.043L222.46 261.635L148.195 271.209Z" fill="#F9B4AF"/>
<path d="M166.771 276.937C164.888 276.937 164.252 273.938 166.305 273.474C176.365 271.205 186.607 270.056 196.879 270.056C200.983 270.056 205.093 270.24 209.196 270.609C211.371 270.804 211.405 274.145 209.338 274.144C209.279 274.144 209.218 274.142 209.155 274.136C205.065 273.768 200.972 273.584 196.886 273.584C186.914 273.584 176.978 274.681 167.199 276.887C167.051 276.921 166.907 276.937 166.771 276.937Z" fill="#F9A7A0"/>
</svg>
