<svg width="434" height="309" viewBox="0 0 434 309" fill="none" xmlns="http://www.w3.org/2000/svg">
<path d="M126.657 204.948C80.9298 204.948 80.9297 263.551 35.2021 263.551" stroke="white" stroke-width="4" stroke-linecap="round" stroke-linejoin="round"/>
<path d="M126.657 263.551C80.9298 263.551 80.9297 204.948 35.2021 204.948M127.02 205.164V263.332M103.793 211.133V257.364M39.775 263.332V205.164M58.0657 257.038V211.133M307.68 204.948C261.952 204.948 261.952 263.551 216.225 263.551" stroke="white" stroke-width="4" stroke-linecap="round" stroke-linejoin="round"/>
<path d="M307.68 263.551C261.952 263.551 261.952 204.948 216.225 204.948M308.043 205.164V263.332M284.816 211.133V257.364M217.604 263.332V205.164M239.089 257.038V211.133" stroke="white" stroke-width="4" stroke-linecap="round" stroke-linejoin="round"/>
<path d="M218.257 204.948C172.53 204.948 172.53 263.551 126.802 263.551" stroke="white" stroke-width="4" stroke-linecap="round" stroke-linejoin="round"/>
<path d="M218.257 263.551C172.53 263.551 172.53 204.948 126.802 204.948M195.394 211.133V257.364M149.666 257.038V211.133M399.28 204.948C353.552 204.948 353.552 263.551 307.825 263.551" stroke="white" stroke-width="4" stroke-linecap="round" stroke-linejoin="round"/>
<path d="M399.28 263.551C353.552 263.551 353.552 204.948 307.825 204.948M394.707 205.164V263.332M376.416 211.133V257.364M330.689 257.038V211.133" stroke="white" stroke-width="4" stroke-linecap="round" stroke-linejoin="round"/>
<path fill-rule="evenodd" clip-rule="evenodd" d="M272.01 125.59H237.957C237.405 125.59 236.861 125.735 236.374 126.011C235.886 126.287 235.47 126.687 235.161 127.176L223.709 145.263L206.371 104.278C206.124 103.694 205.736 103.191 205.246 102.821C204.757 102.451 204.184 102.226 203.586 102.171C202.988 102.116 202.388 102.231 201.846 102.506C201.304 102.781 200.841 103.206 200.503 103.735L186.591 125.59H163.376C165.117 95.1679 188.77 71.0701 217.694 71.0701C231.544 71.0702 244.872 76.7097 254.964 86.8396C265.056 96.9694 271.152 110.827 272.01 125.59ZM272.011 132.8H239.749L225.917 154.647C225.581 155.178 225.118 155.604 224.576 155.881C224.034 156.157 223.432 156.274 222.834 156.219C222.236 156.165 221.662 155.941 221.171 155.57C220.681 155.2 220.292 154.696 220.045 154.112L202.699 113.11L191.169 131.222C190.859 131.708 190.443 132.106 189.957 132.381C189.47 132.656 188.928 132.8 188.377 132.8H163.377C165.123 163.216 188.774 187.309 217.694 187.309C246.614 187.309 270.265 163.216 272.011 132.8Z" fill="#FB752A"/>
<path fill-rule="evenodd" clip-rule="evenodd" d="M65.1838 169.101H67.3562C67.8814 169.101 68.3043 169.557 68.3043 170.113V172.434C68.3043 172.995 67.877 173.447 67.3562 173.447H65.1838C64.9326 173.445 64.692 173.338 64.5144 173.149C64.3368 172.959 64.2367 172.702 64.2358 172.434V170.113C64.2355 169.98 64.2598 169.849 64.3073 169.726C64.3548 169.603 64.4247 169.491 64.5127 169.397C64.6008 169.303 64.7055 169.228 64.8206 169.177C64.9358 169.127 65.0592 169.101 65.1838 169.101ZM72.7152 169.101H74.8876C75.4084 169.101 75.8356 169.557 75.8356 170.113V172.434C75.8356 172.995 75.4084 173.447 74.8876 173.447H72.7152C72.464 173.445 72.2233 173.338 72.0458 173.149C71.8682 172.959 71.768 172.702 71.7671 172.434V170.113C71.7671 169.557 72.1944 169.101 72.7152 169.101ZM80.2523 169.101H82.4247C82.9455 169.101 83.3728 169.557 83.3728 170.113V172.434C83.3728 172.995 82.9455 173.447 82.4247 173.447H80.2523C80.001 173.445 79.7604 173.338 79.5827 173.149C79.405 172.959 79.3048 172.702 79.3038 172.434V170.113C79.3035 169.98 79.3279 169.849 79.3755 169.726C79.423 169.603 79.4929 169.491 79.581 169.397C79.6692 169.303 79.7739 169.228 79.8891 169.177C80.0042 169.127 80.1277 169.101 80.2523 169.101ZM87.7841 169.101H89.9561C90.4773 169.101 90.9046 169.557 90.9046 170.113V172.434C90.9046 172.995 90.4773 173.447 89.9561 173.447H87.7841C87.5322 173.447 87.2905 173.34 87.1119 173.15C86.9333 172.96 86.8324 172.703 86.8313 172.434V170.113C86.8339 169.845 86.9353 169.588 87.1136 169.399C87.2918 169.209 87.5327 169.102 87.7841 169.101ZM95.316 169.101H97.4884C98.014 169.101 98.4412 169.557 98.4412 170.113V172.434C98.441 172.567 98.4161 172.699 98.3681 172.822C98.3201 172.945 98.2498 173.057 98.1613 173.151C98.0728 173.245 97.9678 173.319 97.8524 173.37C97.7369 173.421 97.6132 173.446 97.4884 173.446H95.316C95.0648 173.445 94.8242 173.338 94.6466 173.148C94.469 172.959 94.3688 172.702 94.3679 172.434V170.113C94.3679 169.557 94.7952 169.101 95.316 169.101ZM72.9915 177.872H75.1639C75.6847 177.872 76.1119 178.329 76.1119 178.885V181.21C76.1119 181.766 75.6847 182.223 75.1639 182.223H72.9915C72.7401 182.222 72.4991 182.115 72.3214 181.925C72.1436 181.736 72.0437 181.478 72.0434 181.21V178.89C72.0427 178.756 72.0666 178.624 72.114 178.5C72.1613 178.377 72.231 178.265 72.3191 178.17C72.4073 178.076 72.5121 178.001 72.6275 177.95C72.7428 177.898 72.8666 177.872 72.9915 177.872ZM80.5233 177.872H82.6957C83.2165 177.872 83.6438 178.329 83.6438 178.885V181.21C83.6438 181.766 83.2165 182.223 82.6957 182.223H80.5233C80.2721 182.222 80.0315 182.114 79.8539 181.925C79.6763 181.735 79.5762 181.478 79.5753 181.21V178.89C79.5745 178.756 79.5985 178.624 79.6458 178.5C79.6931 178.377 79.7628 178.265 79.851 178.17C79.9391 178.076 80.0439 178.001 80.1593 177.95C80.2747 177.898 80.3984 177.872 80.5233 177.872ZM88.0556 177.872H90.228C90.7537 177.872 91.1809 178.329 91.1809 178.885V181.21C91.1809 181.766 90.7537 182.223 90.228 182.223H88.0556C87.8044 182.222 87.5638 182.114 87.3862 181.925C87.2086 181.735 87.1085 181.478 87.1076 181.21V178.89C87.1076 178.329 87.5348 177.872 88.0556 177.872ZM80.2523 159.678H82.4247C82.9455 159.678 83.3728 160.134 83.3728 160.69V163.011C83.3728 163.572 82.9455 164.024 82.4247 164.024H80.2523C80.001 164.022 79.7604 163.915 79.5827 163.726C79.405 163.536 79.3048 163.279 79.3038 163.011V160.69C79.3035 160.557 79.3279 160.426 79.3755 160.303C79.423 160.18 79.4929 160.068 79.581 159.974C79.6692 159.88 79.7739 159.805 79.8891 159.754C80.0042 159.704 80.1277 159.678 80.2523 159.678ZM87.7841 159.678H89.9561C90.4773 159.678 90.9046 160.134 90.9046 160.69V163.011C90.9046 163.572 90.4773 164.024 89.9561 164.024H87.7841C87.5322 164.024 87.2905 163.917 87.1119 163.727C86.9333 163.537 86.8324 163.28 86.8313 163.011V160.69C86.8339 160.422 86.9353 160.165 87.1136 159.976C87.2918 159.786 87.5327 159.679 87.7841 159.678ZM337.516 180.264H339.689C340.214 180.264 340.637 180.72 340.637 181.276V183.596C340.637 183.865 340.537 184.122 340.359 184.312C340.181 184.502 339.94 184.608 339.689 184.609H337.516C337.265 184.608 337.024 184.501 336.847 184.311C336.669 184.121 336.569 183.864 336.568 183.596V181.276C336.568 181.143 336.592 181.011 336.64 180.888C336.687 180.765 336.757 180.653 336.845 180.559C336.933 180.465 337.038 180.391 337.153 180.34C337.268 180.289 337.392 180.263 337.516 180.264ZM345.048 180.264H347.22C347.741 180.264 348.168 180.72 348.168 181.276V183.596C348.168 183.865 348.068 184.122 347.89 184.312C347.712 184.502 347.471 184.608 347.22 184.609H345.048C344.797 184.608 344.556 184.501 344.378 184.311C344.201 184.121 344.101 183.864 344.1 183.596V181.276C344.1 180.72 344.527 180.264 345.048 180.264ZM352.584 180.264H354.757C355.278 180.264 355.705 180.72 355.705 181.276V183.596C355.705 183.865 355.605 184.122 355.427 184.312C355.249 184.502 355.008 184.608 354.757 184.609H352.584C352.333 184.608 352.093 184.501 351.915 184.311C351.737 184.121 351.637 183.864 351.636 183.596V181.276C351.636 181.143 351.66 181.011 351.708 180.888C351.756 180.765 351.825 180.654 351.913 180.56C352.002 180.465 352.106 180.391 352.221 180.34C352.336 180.289 352.46 180.263 352.584 180.264ZM360.116 180.264H362.289C362.809 180.264 363.237 180.72 363.237 181.276V183.596C363.237 183.865 363.137 184.122 362.959 184.312C362.781 184.502 362.54 184.608 362.289 184.609H360.116C359.864 184.609 359.623 184.502 359.444 184.312C359.266 184.123 359.165 183.865 359.164 183.596V181.276C359.166 181.008 359.268 180.751 359.446 180.562C359.624 180.372 359.865 180.265 360.116 180.264ZM367.648 180.264H369.821C370.347 180.264 370.774 180.72 370.774 181.276V183.596C370.774 183.729 370.749 183.861 370.701 183.984C370.653 184.108 370.582 184.219 370.494 184.313C370.405 184.407 370.3 184.482 370.185 184.532C370.069 184.583 369.946 184.609 369.821 184.609H367.648C367.397 184.608 367.157 184.501 366.979 184.311C366.802 184.121 366.701 183.864 366.7 183.596V181.276C366.7 180.72 367.128 180.264 367.648 180.264ZM345.324 189.035H347.496C348.017 189.035 348.444 189.491 348.444 190.048V192.372C348.444 192.928 348.017 193.385 347.496 193.385H345.324C345.073 193.384 344.832 193.278 344.654 193.088C344.476 192.898 344.376 192.641 344.376 192.372V190.052C344.375 189.919 344.399 189.787 344.446 189.663C344.494 189.54 344.564 189.427 344.652 189.333C344.74 189.238 344.845 189.163 344.96 189.112C345.075 189.061 345.199 189.035 345.324 189.035ZM352.856 189.035H355.028C355.549 189.035 355.976 189.491 355.976 190.048V192.372C355.976 192.928 355.549 193.385 355.028 193.385H352.856C352.605 193.384 352.364 193.277 352.186 193.087C352.009 192.898 351.908 192.641 351.907 192.372V190.052C351.907 189.919 351.931 189.786 351.978 189.663C352.025 189.54 352.095 189.427 352.183 189.333C352.272 189.238 352.376 189.163 352.492 189.112C352.607 189.061 352.731 189.035 352.856 189.035ZM360.388 189.035H362.561C363.086 189.035 363.513 189.491 363.513 190.048V192.372C363.513 192.928 363.086 193.385 362.561 193.385H360.388C360.137 193.384 359.896 193.277 359.719 193.087C359.541 192.897 359.441 192.64 359.44 192.372V190.052C359.44 189.491 359.867 189.035 360.388 189.035ZM352.584 170.841H354.757C355.278 170.841 355.705 171.297 355.705 171.853V174.173C355.705 174.442 355.605 174.699 355.427 174.889C355.249 175.079 355.008 175.185 354.757 175.186H352.584C352.333 175.185 352.093 175.078 351.915 174.888C351.737 174.698 351.637 174.441 351.636 174.173V171.853C351.636 171.72 351.66 171.588 351.708 171.465C351.756 171.342 351.825 171.231 351.913 171.137C352.002 171.042 352.106 170.968 352.221 170.917C352.336 170.866 352.46 170.84 352.584 170.841ZM360.116 170.841H362.289C362.809 170.841 363.237 171.297 363.237 171.853V174.173C363.237 174.442 363.137 174.699 362.959 174.889C362.781 175.079 362.54 175.185 362.289 175.186H360.116C359.864 175.186 359.623 175.079 359.444 174.889C359.266 174.7 359.165 174.442 359.164 174.173V171.853C359.166 171.585 359.268 171.328 359.446 171.139C359.624 170.949 359.865 170.842 360.116 170.841Z" fill="#E1E4E5"/>
<path d="M63.6511 89.1285L56.2282 97.0482L52.6217 93.2083M79.7341 85.3386H101.672M79.9049 96.9622H116.185M63.6511 116.25L56.2282 124.17L52.6217 120.331M79.7341 112.461H101.672M79.9049 124.085H116.185M331.919 98.4304L324.496 106.35L320.89 102.51M348.002 94.6406H369.94M348.173 106.264H384.452M331.919 125.553L324.496 133.473L320.89 129.633M348.002 121.763H369.94M348.173 133.387H384.452" stroke="white" stroke-width="4" stroke-linecap="round" stroke-linejoin="round"/>
<path d="M134.898 164.3C126.837 166.34 118.311 159.039 118.311 159.039C118.311 159.039 122.861 148.436 130.924 146.403C138.985 144.364 147.508 151.658 147.508 151.658C147.508 151.658 142.958 162.261 134.898 164.3Z" fill="url(#paint0_linear_405_1789)"/>
<path d="M139.104 63.3834C147.59 69.6257 160.555 65.2621 160.555 65.2621C160.555 65.2621 159.752 50.7788 151.26 44.5426C142.774 38.2998 129.815 42.6577 129.815 42.6577C129.815 42.6577 130.618 57.1411 139.104 63.3834Z" fill="url(#paint1_linear_405_1789)"/>
<path d="M306.015 85.7253C300.946 91.2353 291.467 90.0739 291.467 90.0739C291.467 90.0739 290.213 79.9784 295.286 74.472C300.356 68.962 309.83 70.1203 309.83 70.1203C309.83 70.1203 311.084 80.2158 306.015 85.7253Z" fill="url(#paint2_linear_405_1789)"/>
<path d="M261.952 197.506C259.547 197.506 257.597 199.588 257.597 202.157C257.597 204.726 259.547 206.808 261.952 206.808C264.357 206.808 266.307 204.726 266.307 202.157C266.307 199.588 264.357 197.506 261.952 197.506Z" fill="#FB752A"/>
<path d="M172.164 190.685C167.074 190.685 162.949 194.949 162.949 200.209C162.949 205.469 167.074 209.733 172.164 209.733C177.253 209.733 181.379 205.469 181.379 200.209C181.379 194.949 177.253 190.685 172.164 190.685Z" fill="#FB752A"/>
<path d="M46.6015 164.802C44.7955 164.802 43.3315 163.239 43.3315 161.31C43.3315 159.381 44.7955 157.818 46.6015 157.818C48.4074 157.818 49.8714 159.381 49.8714 161.31C49.8714 163.239 48.4074 164.802 46.6015 164.802Z" fill="#FB752A"/>
<path d="M353.262 81.8512C349.815 81.8512 347.02 78.8664 347.02 75.1845C347.02 71.5026 349.815 68.5178 353.262 68.5178C356.71 68.5178 359.505 71.5026 359.505 75.1845C359.505 78.8664 356.71 81.8512 353.262 81.8512Z" fill="#FB752A"/>
<path d="M353.843 276.559C350.395 276.559 347.601 273.717 347.601 270.21C347.601 266.703 350.395 263.861 353.843 263.861C357.291 263.861 360.085 266.703 360.085 270.21C360.085 273.717 357.291 276.559 353.843 276.559Z" fill="#E1E4E5"/>
<path d="M86.301 210.529C84.3768 210.529 82.817 208.863 82.817 206.808C82.817 204.753 84.3768 203.087 86.301 203.087C88.2252 203.087 89.7851 204.753 89.7851 206.808C89.7851 208.863 88.2252 210.529 86.301 210.529Z" fill="#E1E4E5"/>
<path d="M174.32 274.506C173.171 274.506 172.239 273.512 172.239 272.284C172.239 271.057 173.171 270.062 174.32 270.062C175.469 270.062 176.401 271.057 176.401 272.284C176.401 273.512 175.469 274.506 174.32 274.506Z" fill="#E1E4E5"/>
<path d="M287.28 51.3023C285.639 51.3023 284.308 49.881 284.308 48.1278C284.308 46.3746 285.639 44.9534 287.28 44.9534C288.922 44.9534 290.253 46.3746 290.253 48.1278C290.253 49.881 288.922 51.3023 287.28 51.3023Z" fill="#E1E4E5"/>
<path d="M83.9546 260.035C84.3699 261.69 83.4502 263.391 81.9006 263.835C80.3509 264.278 78.758 263.296 78.3428 261.641C77.9276 259.986 78.8472 258.285 80.3969 257.842C81.9465 257.398 83.5394 258.38 83.9546 260.035Z" fill="#E1E4E5"/>
<path d="M143.006 95.3765C140.872 95.3765 139.141 93.5287 139.141 91.2493C139.141 88.9699 140.872 87.1221 143.006 87.1221C145.14 87.1221 146.87 88.9699 146.87 91.2493C146.87 93.5287 145.14 95.3765 143.006 95.3765Z" fill="#E1E4E5"/>
<path d="M355.8 153.595C354.158 153.595 352.827 152.458 352.827 151.055C352.827 149.652 354.158 148.515 355.8 148.515C357.441 148.515 358.772 149.652 358.772 151.055C358.772 152.458 357.441 153.595 355.8 153.595Z" fill="#E1E4E5"/>
<path d="M298.132 163.433C298.996 166.878 297.082 170.418 293.857 171.341C290.632 172.264 287.317 170.22 286.453 166.775C285.589 163.331 287.503 159.791 290.728 158.868C293.953 157.945 297.268 159.989 298.132 163.433Z" fill="#E1E4E5"/>
<path d="M387.697 161.667H387.775C388.235 168.635 393.088 168.743 393.088 168.743C393.088 168.743 387.737 168.854 387.737 176.905C387.737 168.854 382.386 168.743 382.386 168.743C382.386 168.743 387.237 168.635 387.697 161.667ZM176.265 48.0535H176.341C176.791 55.1424 181.53 55.2516 181.53 55.2516C181.53 55.2516 176.304 55.3654 176.304 63.557C176.304 55.3654 171.078 55.2516 171.078 55.2516C171.078 55.2516 175.815 55.1424 176.265 48.0535Z" fill="#E1E4E5"/>
<defs>
<linearGradient id="paint0_linear_405_1789" x1="104.543" y1="169.371" x2="176.73" y2="137.438" gradientUnits="userSpaceOnUse">
<stop stop-color="white"/>
<stop offset="1" stop-color="#EEEEEE"/>
</linearGradient>
<linearGradient id="paint1_linear_405_1789" x1="172.162" y1="83.866" x2="100.725" y2="13.3324" gradientUnits="userSpaceOnUse">
<stop stop-color="white"/>
<stop offset="1" stop-color="#EEEEEE"/>
</linearGradient>
<linearGradient id="paint2_linear_405_1789" x1="285.791" y1="104.546" x2="325.955" y2="45.5924" gradientUnits="userSpaceOnUse">
<stop stop-color="white"/>
<stop offset="1" stop-color="#EEEEEE"/>
</linearGradient>
</defs>
</svg>
